Coordinates
version=1
nRows=49
nColumns=12
inDegrees=yes

Units are S.I. units (second, meters, Newtons, ...)
Angles are in degrees

endheader
time	SC_y	SC_z	SC_x	AC_y	AC_z	AC_x	GH_y	GH_z	GH_yy	EL_x	PS_y
       0.0              -50.33          34.69          2.454          60.89          5.143          1.992          170.7          12.99          145.8          63.51          95.72
   0.02106              -50.32          34.69          2.457          60.89          5.142          1.993          170.6          12.99          145.8           63.5          95.72
   0.04211              -50.32          34.69           2.46          60.89          5.141          1.994          170.6          12.98          145.8           63.5          95.73
   0.06317              -50.31          34.69          2.464          60.89           5.14          1.995          170.5          12.98          145.8          63.49          95.73
   0.08423               -50.3          34.69          2.468          60.89          5.139          1.996          170.5          12.97          145.8          63.48          95.73
    0.1053               -50.3          34.68          2.472          60.89          5.138          1.997          170.4          12.97          145.8          63.47          95.74
    0.1263              -50.29          34.68          2.476          60.89          5.137          1.998          170.4          12.97          145.8          63.47          95.74
    0.1474              -50.28          34.68           2.48          60.89          5.135          1.999          170.3          12.96          145.8          63.46          95.75
    0.1685              -50.27          34.68          2.485          60.89          5.134            2.0          170.3          12.96          145.8          63.45          95.75
    0.1895              -50.26          34.68          2.491          60.89          5.133          2.002          170.2          12.95          145.8          63.44          95.76
    0.2106              -50.25          34.68          2.496          60.89          5.131          2.003          170.1          12.94          145.8          63.43          95.76
    0.2316              -50.24          34.67          2.502           60.9          5.129          2.005          170.0          12.94          145.8          63.42          95.77
    0.2527              -50.23          34.67          2.509           60.9          5.128          2.006          169.9          12.93          145.8           63.4          95.77
    0.2737              -50.22          34.67          2.516           60.9          5.126          2.008          169.9          12.92          145.8          63.39          95.78
    0.2948              -50.21          34.66          2.524           60.9          5.124           2.01          169.8          12.92          145.7          63.37          95.79
    0.3159              -50.19          34.66          2.532           60.9          5.121          2.013          169.6          12.91          145.7          63.36           95.8
    0.3369              -50.18          34.66          2.541           60.9          5.119          2.015          169.5           12.9          145.7          63.34           95.8
     0.358              -50.16          34.65          2.551           60.9          5.116          2.018          169.4          12.89          145.7          63.32          95.81
     0.379              -50.14          34.65          2.561           60.9          5.113           2.02          169.3          12.87          145.7           63.3          95.82
    0.4001              -50.12          34.65          2.573          60.91           5.11          2.023          169.1          12.86          145.7          63.28          95.84
    0.4211               -50.1          34.64          2.586          60.91          5.106          2.027          168.9          12.85          145.7          63.25          95.85
    0.4422              -50.07          34.64            2.6          60.91          5.103          2.031          168.7          12.83          145.7          63.23          95.86
    0.4633              -50.04          34.63          2.616          60.91          5.098          2.035          168.5          12.82          145.7           63.2          95.88
    0.4843              -50.01          34.62          2.633          60.91          5.094          2.039          168.3           12.8          145.7          63.16          95.89
    0.5054              -49.98          34.62          2.652          60.92          5.088          2.044          168.0          12.78          145.7          63.13          95.91
    0.5264              -49.94          34.61          2.674          60.92          5.082           2.05          167.8          12.76          145.7          63.09          95.93
    0.5475               -49.9           34.6          2.698          60.92          5.076          2.057          167.4          12.73          145.7          63.04          95.96
    0.5685              -49.85          34.59          2.725          60.93          5.068          2.064          167.1           12.7          145.7          62.99          95.98
    0.5896               -49.8          34.58          2.756          60.93           5.06          2.072          166.7          12.67          145.7          62.93          96.01
    0.6106              -49.74          34.56           2.79          60.94          5.051          2.081          166.2          12.63          145.6          62.86          96.04
    0.6317              -49.67          34.55           2.83          60.94           5.04          2.091          165.7          12.59          145.6          62.79          96.08
    0.6528              -49.59          34.53          2.876          60.95          5.027          2.104          165.1          12.54          145.6           62.7          96.13
    0.6738               -49.5          34.51          2.928          60.96          5.013          2.117          164.4          12.49          145.6           62.6          96.18
    0.6949              -49.39          34.49          2.989          60.97          4.996          2.134          163.6          12.42          145.6          62.48          96.24
    0.7159              -49.27          34.46          3.061          60.98          4.977          2.152          162.6          12.35          145.5          62.34           96.3
     0.737              -49.12          34.43          3.145          60.99          4.954          2.175          161.5          12.26          145.5          62.18          96.39
     0.758              -48.95          34.39          3.245           61.0          4.926          2.201          160.2          12.15          145.4          61.99          96.48
    0.7791              -48.74          34.35          3.365          61.02          4.894          2.233          158.6          12.02          145.4          61.76           96.6
    0.8002              -48.48           34.3           3.51          61.04          4.854          2.271          156.7          11.87          145.3          61.48          96.74
    0.8212              -48.17          34.23          3.688          61.07          4.805          2.318          154.3          11.68          145.3          61.14          96.91
    0.8423              -47.79          34.15          3.907           61.1          4.746          2.376          151.4          11.45          145.2          60.72          97.12
    0.8633              -47.32          34.05           4.18          61.14          4.671          2.448          147.8          11.16          145.0           60.2          97.38
    0.8844              -46.71          33.92          4.524          61.18          4.577          2.539          143.2          10.79          144.9          59.54          97.71
    0.9054              -45.95          33.75          4.961          61.25          4.458          2.655          137.4          10.33          144.7           58.7          98.13
    0.9265              -44.98          33.54          5.521          61.33          4.305          2.803          130.0          9.736          144.5          57.62          98.67
    0.9476              -43.72          33.28          6.239          61.43          4.109          2.993          120.5          8.975          144.2          56.25          99.36
    0.9686              -42.12          32.93          7.156          61.56          3.858          3.236          108.3          8.002          143.8          54.49          100.2
    0.9897              -40.11           32.5           8.31          61.73          3.543          3.541          93.02          6.778          143.3          52.27          101.4
     1.011              -37.66          31.97          9.716          61.93          3.159          3.913          74.38          5.287          142.7          49.57          102.7
